<mxfile host="app.diagrams.net" agent="Mozilla/5.0 (Macintosh; Intel Mac OS X 10_15_7) AppleWebKit/537.36 (KHTML, like Gecko) Chrome/139.0.0.0 Safari/537.36" version="28.1.1">
  <diagram name="Page-1" id="-H_mtQnk-PTXWXPvYvuk">
    <mxGraphModel dx="1181" dy="632" grid="1" gridSize="10" guides="1" tooltips="1" connect="1" arrows="1" fold="1" page="1" pageScale="1" pageWidth="1169" pageHeight="827" math="0" shadow="0">
      <root>
        <mxCell id="0" />
        <mxCell id="1" parent="0" />
        <mxCell id="zA23MoTUsTF4_91t8viU-2" value="MongoDB" style="shape=cylinder3;whiteSpace=wrap;html=1;boundedLbl=1;backgroundOutline=1;size=15;" parent="1" vertex="1">
          <mxGeometry x="560" y="280" width="60" height="80" as="geometry" />
        </mxCell>
        <mxCell id="CQDam7mDFGuMna5P9MvD-5" style="edgeStyle=orthogonalEdgeStyle;rounded=0;orthogonalLoop=1;jettySize=auto;html=1;exitX=0.5;exitY=1;exitDx=0;exitDy=0;entryX=0.5;entryY=0;entryDx=0;entryDy=0;" parent="1" source="zA23MoTUsTF4_91t8viU-3" target="CQDam7mDFGuMna5P9MvD-4" edge="1">
          <mxGeometry relative="1" as="geometry" />
        </mxCell>
        <mxCell id="cACMoi28l2Wmj7l94FMR-4" style="edgeStyle=orthogonalEdgeStyle;rounded=0;orthogonalLoop=1;jettySize=auto;html=1;exitX=0;exitY=0.5;exitDx=0;exitDy=0;" edge="1" parent="1" source="zA23MoTUsTF4_91t8viU-3" target="cACMoi28l2Wmj7l94FMR-2">
          <mxGeometry relative="1" as="geometry" />
        </mxCell>
        <mxCell id="zA23MoTUsTF4_91t8viU-3" value="pymongo-api" style="rounded=1;whiteSpace=wrap;html=1;" parent="1" vertex="1">
          <mxGeometry x="375" y="50" width="120" height="60" as="geometry" />
        </mxCell>
        <mxCell id="CQDam7mDFGuMna5P9MvD-1" value="MongoDB" style="shape=cylinder3;whiteSpace=wrap;html=1;boundedLbl=1;backgroundOutline=1;size=15;" parent="1" vertex="1">
          <mxGeometry x="270" y="280" width="60" height="80" as="geometry" />
        </mxCell>
        <mxCell id="CQDam7mDFGuMna5P9MvD-2" value="&quot;shard1-1:27018&quot;" style="text;html=1;align=center;verticalAlign=middle;whiteSpace=wrap;rounded=0;" parent="1" vertex="1">
          <mxGeometry x="230" y="360" width="130" height="30" as="geometry" />
        </mxCell>
        <mxCell id="CQDam7mDFGuMna5P9MvD-3" value="&quot;shard2-1:27019&quot;" style="text;html=1;align=center;verticalAlign=middle;whiteSpace=wrap;rounded=0;" parent="1" vertex="1">
          <mxGeometry x="530" y="360" width="130" height="30" as="geometry" />
        </mxCell>
        <mxCell id="rrCqz3fQyI4HbJ4ky-nH-3" style="edgeStyle=orthogonalEdgeStyle;rounded=0;orthogonalLoop=1;jettySize=auto;html=1;exitX=1;exitY=0.25;exitDx=0;exitDy=0;entryX=0;entryY=0.5;entryDx=0;entryDy=0;" parent="1" source="CQDam7mDFGuMna5P9MvD-4" target="CQDam7mDFGuMna5P9MvD-8" edge="1">
          <mxGeometry relative="1" as="geometry">
            <Array as="points">
              <mxPoint x="590" y="165" />
              <mxPoint x="590" y="80" />
            </Array>
          </mxGeometry>
        </mxCell>
        <mxCell id="LtKOMRhB9yytWE8H1TOB-1" style="edgeStyle=orthogonalEdgeStyle;rounded=0;orthogonalLoop=1;jettySize=auto;html=1;exitX=0;exitY=0.5;exitDx=0;exitDy=0;" parent="1" source="CQDam7mDFGuMna5P9MvD-4" target="rrCqz3fQyI4HbJ4ky-nH-13" edge="1">
          <mxGeometry relative="1" as="geometry" />
        </mxCell>
        <mxCell id="CQDam7mDFGuMna5P9MvD-4" value="mongos_router" style="rounded=1;whiteSpace=wrap;html=1;" parent="1" vertex="1">
          <mxGeometry x="370" y="150" width="130" height="60" as="geometry" />
        </mxCell>
        <mxCell id="CQDam7mDFGuMna5P9MvD-8" value="configSrv" style="rounded=1;whiteSpace=wrap;html=1;" parent="1" vertex="1">
          <mxGeometry x="630" y="50" width="120" height="60" as="geometry" />
        </mxCell>
        <mxCell id="rrCqz3fQyI4HbJ4ky-nH-2" value="&quot;configSrv:27017&quot;" style="text;whiteSpace=wrap;" parent="1" vertex="1">
          <mxGeometry x="639" y="110" width="102" height="22" as="geometry" />
        </mxCell>
        <mxCell id="rrCqz3fQyI4HbJ4ky-nH-5" value="&quot;mongodb://mongos_router:27020&quot;" style="text;whiteSpace=wrap;" parent="1" vertex="1">
          <mxGeometry x="348" y="207" width="190" height="20" as="geometry" />
        </mxCell>
        <mxCell id="rrCqz3fQyI4HbJ4ky-nH-7" value="&quot;localhost:8080&quot;" style="text;whiteSpace=wrap;" parent="1" vertex="1">
          <mxGeometry x="385" y="26" width="90" height="20" as="geometry" />
        </mxCell>
        <mxCell id="rrCqz3fQyI4HbJ4ky-nH-13" value="&lt;span style=&quot;font-weight: 700;&quot;&gt;shard1 - replicaset&lt;/span&gt;" style="shape=umlFrame;whiteSpace=wrap;html=1;pointerEvents=0;width=90;height=30;" parent="1" vertex="1">
          <mxGeometry x="240" y="236" width="120" height="394" as="geometry" />
        </mxCell>
        <mxCell id="rrCqz3fQyI4HbJ4ky-nH-14" value="&lt;span style=&quot;font-weight: 700;&quot;&gt;shard2 - replicaset&lt;/span&gt;" style="shape=umlFrame;whiteSpace=wrap;html=1;pointerEvents=0;width=90;height=30;" parent="1" vertex="1">
          <mxGeometry x="538" y="237" width="112" height="393" as="geometry" />
        </mxCell>
        <mxCell id="rrCqz3fQyI4HbJ4ky-nH-15" value="&lt;span style=&quot;font-weight: 700;&quot;&gt;config_server - replicaset&lt;/span&gt;" style="shape=umlFrame;whiteSpace=wrap;html=1;pointerEvents=0;width=90;height=30;" parent="1" vertex="1">
          <mxGeometry x="608" y="10" width="172" height="140" as="geometry" />
        </mxCell>
        <mxCell id="LtKOMRhB9yytWE8H1TOB-3" value="MongoDB" style="shape=cylinder3;whiteSpace=wrap;html=1;boundedLbl=1;backgroundOutline=1;size=15;" parent="1" vertex="1">
          <mxGeometry x="270" y="400" width="60" height="80" as="geometry" />
        </mxCell>
        <mxCell id="LtKOMRhB9yytWE8H1TOB-4" value="&quot;shard1-2:27018&quot;" style="text;html=1;align=center;verticalAlign=middle;whiteSpace=wrap;rounded=0;" parent="1" vertex="1">
          <mxGeometry x="230" y="480" width="130" height="30" as="geometry" />
        </mxCell>
        <mxCell id="LtKOMRhB9yytWE8H1TOB-5" value="MongoDB" style="shape=cylinder3;whiteSpace=wrap;html=1;boundedLbl=1;backgroundOutline=1;size=15;" parent="1" vertex="1">
          <mxGeometry x="270" y="520" width="60" height="80" as="geometry" />
        </mxCell>
        <mxCell id="LtKOMRhB9yytWE8H1TOB-6" value="&quot;shard1-3:27018&quot;" style="text;html=1;align=center;verticalAlign=middle;whiteSpace=wrap;rounded=0;" parent="1" vertex="1">
          <mxGeometry x="230" y="600" width="130" height="30" as="geometry" />
        </mxCell>
        <mxCell id="LtKOMRhB9yytWE8H1TOB-7" value="MongoDB" style="shape=cylinder3;whiteSpace=wrap;html=1;boundedLbl=1;backgroundOutline=1;size=15;" parent="1" vertex="1">
          <mxGeometry x="560" y="400" width="60" height="80" as="geometry" />
        </mxCell>
        <mxCell id="LtKOMRhB9yytWE8H1TOB-8" value="&quot;shard2-2:27019&quot;" style="text;html=1;align=center;verticalAlign=middle;whiteSpace=wrap;rounded=0;" parent="1" vertex="1">
          <mxGeometry x="530" y="480" width="130" height="30" as="geometry" />
        </mxCell>
        <mxCell id="LtKOMRhB9yytWE8H1TOB-9" value="MongoDB" style="shape=cylinder3;whiteSpace=wrap;html=1;boundedLbl=1;backgroundOutline=1;size=15;" parent="1" vertex="1">
          <mxGeometry x="560" y="520" width="60" height="80" as="geometry" />
        </mxCell>
        <mxCell id="LtKOMRhB9yytWE8H1TOB-10" value="&quot;shard2-3:27019&quot;" style="text;html=1;align=center;verticalAlign=middle;whiteSpace=wrap;rounded=0;" parent="1" vertex="1">
          <mxGeometry x="530" y="600" width="130" height="30" as="geometry" />
        </mxCell>
        <mxCell id="LtKOMRhB9yytWE8H1TOB-13" style="edgeStyle=orthogonalEdgeStyle;rounded=0;orthogonalLoop=1;jettySize=auto;html=1;exitX=1;exitY=0.5;exitDx=0;exitDy=0;entryX=0.467;entryY=0.002;entryDx=0;entryDy=0;entryPerimeter=0;" parent="1" source="CQDam7mDFGuMna5P9MvD-4" target="rrCqz3fQyI4HbJ4ky-nH-14" edge="1">
          <mxGeometry relative="1" as="geometry" />
        </mxCell>
        <mxCell id="cACMoi28l2Wmj7l94FMR-2" value="Redis cache" style="shape=cylinder3;whiteSpace=wrap;html=1;boundedLbl=1;backgroundOutline=1;size=15;" vertex="1" parent="1">
          <mxGeometry x="190" y="40" width="60" height="80" as="geometry" />
        </mxCell>
        <mxCell id="cACMoi28l2Wmj7l94FMR-3" value="&quot;redis-cache:6379&quot;" style="text;html=1;align=center;verticalAlign=middle;whiteSpace=wrap;rounded=0;" vertex="1" parent="1">
          <mxGeometry x="165" y="115" width="110" height="35" as="geometry" />
        </mxCell>
      </root>
    </mxGraphModel>
  </diagram>
</mxfile>
